<svg width="41" height="40" viewBox="0 0 41 40" fill="none" xmlns="http://www.w3.org/2000/svg">
<path d="M37.6382 7.96257V30.0253H3.86719V7.96257C3.86719 6.57952 4.98914 5.46124 6.36852 5.46124H35.137C36.5163 5.46124 37.6382 6.57952 37.6382 7.96257Z" fill="white"/>
<path d="M34.698 9.97494V25.5121C34.698 26.3817 33.9934 27.0822 33.1277 27.0822H8.37875C7.51305 27.0822 6.8125 26.3817 6.8125 25.5121V9.97494C6.8125 9.10533 7.51305 8.40479 8.37875 8.40479H33.1277C33.9934 8.40479 34.698 9.10533 34.698 9.97494Z" fill="#FDC140"/>
<path d="M38.8115 30.0255C39.1808 30.0255 39.4802 30.3248 39.4802 30.6941V31.0297C39.4802 32.9682 37.9095 34.5388 35.9747 34.5388H5.52891C3.59406 34.5388 2.02344 32.9682 2.02344 31.0297V30.6941C2.02344 30.3248 2.32281 30.0255 2.69211 30.0255H38.8115Z" fill="#FDC140"/>
<path d="M18.7422 16.8097C18.7422 18.7437 17.1728 20.3132 15.2386 20.3132C13.2998 20.3132 11.7305 18.7437 11.7305 16.8097C11.7305 14.8709 13.2998 13.3015 15.2386 13.3015C17.1728 13.3015 18.7422 14.871 18.7422 16.8097Z" fill="white"/>
<path d="M8.46094 27.0828C8.46094 23.3458 11.4933 20.3132 15.2305 20.3132C18.9765 20.3132 22.0088 23.3458 22.0088 27.0828" fill="white"/>
<path d="M33.1279 8.00659H8.37883C7.29547 8.00659 6.41406 8.88972 6.41406 9.97526V25.5123C6.41406 26.5978 7.29547 27.481 8.37883 27.481H33.1279C34.2136 27.481 35.0966 26.5978 35.0966 25.5123V9.97519C35.0966 8.88972 34.2136 8.00659 33.1279 8.00659ZM8.88234 26.6839C9.09 23.3569 11.8546 20.7118 15.233 20.7118C18.6159 20.7118 21.3848 23.3569 21.5927 26.6839H8.88234ZM12.1301 16.8098C12.1301 15.095 13.5252 13.7 15.2397 13.7C16.9519 13.7 18.345 15.0951 18.345 16.8098C18.345 18.522 16.9519 19.9149 15.2397 19.9149C13.5252 19.915 12.1301 18.522 12.1301 16.8098ZM34.2996 25.5123C34.2996 26.1585 33.7739 26.684 33.1279 26.684H22.3897C22.2175 23.5832 20.0695 21.0059 17.1804 20.1903C18.3505 19.5158 19.142 18.2546 19.142 16.8099C19.142 14.6556 17.3913 12.9032 15.2397 12.9032C13.0854 12.9032 11.3331 14.6557 11.3331 16.8099C11.3331 18.2536 12.1241 19.5139 13.2942 20.1888C10.4186 20.9989 8.27633 23.5582 8.0875 26.6427C7.58484 26.5119 7.21102 26.0571 7.21102 25.5124V9.97519C7.21102 9.32901 7.73477 8.80347 8.37883 8.80347H33.1279C33.7738 8.80347 34.2996 9.32901 34.2996 9.97519V25.5123Z" fill="black"/>
<path d="M38.8117 29.627H38.0358V7.96283C38.0358 6.36385 36.7353 5.06299 35.1363 5.06299H6.36781C4.76883 5.06299 3.46797 6.36385 3.46797 7.96283V29.627H2.69203C2.10367 29.627 1.625 30.1059 1.625 30.6942V31.0297C1.625 33.1844 3.37609 34.9374 5.52883 34.9374H35.9748C38.1276 34.9374 39.8787 33.1844 39.8787 31.0297V30.6942C39.8787 30.1059 39.4001 29.627 38.8117 29.627ZM4.26492 7.96283C4.26492 6.80322 5.2082 5.85994 6.36781 5.85994H35.1362C36.2955 5.85994 37.2388 6.80322 37.2388 7.96283V29.627H4.26492V7.96283ZM39.0818 31.0296C39.0818 32.7449 37.6879 34.1404 35.9749 34.1404H5.52883C3.81586 34.1404 2.42195 32.7449 2.42195 31.0296V30.6942C2.42195 30.5451 2.54297 30.4239 2.69203 30.4239H38.8117C38.9608 30.4239 39.0818 30.5452 39.0818 30.6942V31.0296Z" fill="black"/>
<path d="M25.6934 31.8835H15.8047C15.5845 31.8835 15.4062 32.062 15.4062 32.282C15.4062 32.5021 15.5845 32.6804 15.8047 32.6804H25.6934C25.9137 32.6804 26.0919 32.502 26.0919 32.282C26.0919 32.062 25.9137 31.8835 25.6934 31.8835Z" fill="black"/>
<path d="M23.3359 12.9541H27.1884C27.4086 12.9541 27.5868 12.7757 27.5868 12.5557C27.5868 12.3357 27.4086 12.1572 27.1884 12.1572H23.3359C23.1157 12.1572 22.9375 12.3357 22.9375 12.5557C22.9375 12.7757 23.1157 12.9541 23.3359 12.9541Z" fill="black"/>
<path d="M29.9306 15.5471H23.3359C23.1157 15.5471 22.9375 15.7256 22.9375 15.9456C22.9375 16.1656 23.1157 16.344 23.3359 16.344H29.9306C30.1509 16.344 30.3291 16.1656 30.3291 15.9456C30.3291 15.7256 30.1509 15.5471 29.9306 15.5471Z" fill="black"/>
<path d="M23.3359 19.7339H28.2648C28.485 19.7339 28.6632 19.5554 28.6632 19.3354C28.6632 19.1154 28.485 18.937 28.2648 18.937H23.3359C23.1157 18.937 22.9375 19.1154 22.9375 19.3354C22.9375 19.5554 23.1157 19.7339 23.3359 19.7339Z" fill="black"/>
<path d="M29.5142 22.3269H23.3359C23.1157 22.3269 22.9375 22.5053 22.9375 22.7253C22.9375 22.9454 23.1157 23.1238 23.3359 23.1238H29.5142C29.7345 23.1238 29.9127 22.9453 29.9127 22.7253C29.9127 22.5053 29.7345 22.3269 29.5142 22.3269Z" fill="black"/>
</svg>
